<svg width="20" height="20" viewBox="0 0 20 20" fill="none" xmlns="http://www.w3.org/2000/svg">
<path d="M12.1425 6.44344C12.533 6.05291 13.1662 6.05291 13.5567 6.44343C13.9472 6.83396 13.9472 7.46712 13.5567 7.85765L7.89986 13.5145C7.50934 13.905 6.87617 13.905 6.48565 13.5145C6.09512 13.124 6.09512 12.4908 6.48565 12.1003L12.1425 6.44344Z" fill="#929292"/>
<path fill-rule="evenodd" clip-rule="evenodd" d="M17.093 7.14942C18.2646 5.97785 18.2646 4.07835 17.093 2.90678C15.9214 1.73521 14.0219 1.73521 12.8504 2.90678L7.90518 7.85196L7.90518 5.02353L11.4361 1.49256C13.3888 -0.460056 16.5546 -0.460056 18.5072 1.49256C20.4598 3.44519 20.4598 6.61101 18.5072 8.56363L14.9717 12.0992L12.1433 12.0992L17.093 7.14942ZM12.1433 14.9276L8.60772 18.4631C6.6551 20.4157 3.48927 20.4157 1.53665 18.4631C-0.415968 16.5105 -0.415969 13.3447 1.53665 11.3921L5.06762 7.8611L7.89604 7.8611L2.95087 12.8063C1.77929 13.9778 1.77929 15.8773 2.95087 17.0489C4.12244 18.2205 6.02193 18.2205 7.19351 17.0489L12.1433 12.0992L12.1433 14.9276Z" fill="#929292"/>
</svg>
