<svg width="15" height="15" viewBox="0 0 15 15" fill="none" xmlns="http://www.w3.org/2000/svg">
<mask id="path-1-inside-1_290_3791" fill="white">
<path d="M3 5C3 3.89543 3.89543 3 5 3H13C14.1046 3 15 3.89543 15 5V13C15 14.1046 14.1046 15 13 15H5C3.89543 15 3 14.1046 3 13V5Z"/>
</mask>
<path d="M5 4H13V2H5V4ZM14 5V13H16V5H14ZM13 14H5V16H13V14ZM4 13V5H2V13H4ZM5 14C4.44772 14 4 13.5523 4 13H2C2 14.6569 3.34315 16 5 16V14ZM14 13C14 13.5523 13.5523 14 13 14V16C14.6569 16 16 14.6569 16 13H14ZM13 4C13.5523 4 14 4.44772 14 5H16C16 3.34315 14.6569 2 13 2V4ZM5 2C3.34315 2 2 3.34315 2 5H4C4 4.44772 4.44772 4 5 4V2Z" fill="#666666" mask="url(#path-1-inside-1_290_3791)"/>
<mask id="path-3-inside-2_290_3791" fill="white">
<path d="M0 2C0 0.895431 0.895431 0 2 0H10C10.5523 0 11 0.447715 11 1V9C11 10.1046 10.1046 11 9 11H1C0.447715 11 0 10.5523 0 10V2Z"/>
</mask>
<path d="M-1 2C-1 0.343146 0.343146 -1 2 -1H9C10.1046 -1 11 -0.104569 11 1C11 1 10.5523 1 10 1H2C1.44772 1 1 1.44772 1 2H-1ZM11 11H0H11ZM1 11C-0.104569 11 -1 10.1046 -1 9V2C-1 0.343146 0.343146 -1 2 -1V1C1.44772 1 1 1.44772 1 2V10C1 10.5523 1 11 1 11ZM11 0V11V0Z" fill="#666666" mask="url(#path-3-inside-2_290_3791)"/>
</svg>
