<svg width="30" height="26" viewBox="0 0 30 26" fill="none" xmlns="http://www.w3.org/2000/svg">
<path d="M0 2C0 0.895431 0.895431 0 2 0H28C29.1046 0 30 0.895431 30 2C30 3.10457 29.1046 4 28 4H2C0.89543 4 0 3.10457 0 2Z" fill="#1E1E1E"/>
<path d="M0 24C0 22.8954 0.895431 22 2 22H28C29.1046 22 30 22.8954 30 24C30 25.1046 29.1046 26 28 26H2C0.89543 26 0 25.1046 0 24Z" fill="#1E1E1E"/>
<path d="M0 13C0 11.8954 0.895431 11 2 11H28C29.1046 11 30 11.8954 30 13C30 14.1046 29.1046 15 28 15H2C0.89543 15 0 14.1046 0 13Z" fill="#1E1E1E"/>
</svg>
