<svg width="232" height="34" viewBox="0 0 232 34" fill="none" xmlns="http://www.w3.org/2000/svg">
<rect x="165" y="8" width="1" height="10" fill="#D9D9D9"/>
<path d="M186.368 19.648C185.904 20.272 185.408 20.776 184.88 21.16C184.368 21.544 183.776 21.824 183.104 22C182.432 22.176 181.608 22.264 180.632 22.264C179.24 22.264 178.048 21.96 177.056 21.352C176.064 20.728 175.304 19.896 174.776 18.856C174.248 17.8 173.984 16.624 173.984 15.328C173.984 14.016 174.256 12.84 174.8 11.8C175.344 10.744 176.104 9.912 177.08 9.304C178.072 8.696 179.224 8.392 180.536 8.392C181.816 8.392 182.912 8.688 183.824 9.28C184.752 9.856 185.464 10.688 185.96 11.776C186.456 12.848 186.704 14.128 186.704 15.616V16.024H178.016L177.488 14.152L183.392 13.672C183.344 12.824 183.104 12.136 182.672 11.608C182.256 11.064 181.584 10.792 180.656 10.792C179.584 10.792 178.696 11.192 177.992 11.992C177.304 12.776 176.96 13.896 176.96 15.352C176.96 16.392 177.152 17.256 177.536 17.944C177.936 18.616 178.432 19.12 179.024 19.456C179.632 19.776 180.24 19.936 180.848 19.936C181.872 19.936 182.784 19.768 183.584 19.432C184.4 19.08 185.04 18.608 185.504 18.016L186.368 19.648ZM197.112 5.03125V22H194.066V5.03125H197.112ZM201.477 22V5.03125H207.852C211.742 5.03125 213.828 7.21094 213.828 10.4453C213.828 12.7539 212.773 14.4648 210.781 15.2734L214.438 22H211.039L207.711 15.7891H204.523V22H201.477ZM204.523 13.2344H207.383C209.68 13.2344 210.711 12.25 210.711 10.4453C210.711 8.64062 209.68 7.58594 207.383 7.58594H204.523V13.2344ZM217.653 22V5.03125H224.145C227.825 5.03125 229.653 6.90625 229.653 9.4375C229.653 11.5 228.341 12.6484 226.677 13.0469V13.2109C228.481 13.3047 230.309 14.8047 230.309 17.3828C230.309 20.0312 228.411 22 224.52 22H217.653ZM224.052 19.4453C226.278 19.4453 227.216 18.4844 227.216 17.1484C227.216 15.625 226.02 14.4531 224.122 14.4531H220.7V19.4453H224.052ZM223.77 12.25C225.388 12.25 226.606 11.3125 226.606 9.8125C226.606 8.5 225.669 7.5625 223.841 7.5625H220.7V12.25H223.77Z" fill="#1B4A96"/>
<rect x="189" y="14" width="3" height="3" rx="1.5" fill="#1B4A96"/>
<g clip-path="url(#clip0_150_8794)">
<path d="M16.6761 28.5733C12.3932 28.5733 7.37139 25.1879 10.3974 17.7867C13.8415 9.3664 24.5509 3.89147 28.9422 3.89147C30.04 3.89147 30.6832 4.28751 30.6467 5.07816C30.5932 6.23645 29.6685 7.71413 30.7973 8.64105C32.2103 9.7965 36.3596 7.92421 36.7621 4.96318C37.0225 3.0043 34.3694 1 29.0295 1C16.731 1 4.58883 8.23933 0.968826 17.9415C-2.26272 26.6031 2.83513 34 12.61 34C21.4221 34 27.3377 28.5847 29.3968 21.9827L29.9021 20.3262H18.9253C18.3933 22.5108 19.028 25.0715 22.3933 25.0715C23.3222 25.0715 24.2371 24.8401 25.0351 24.3873L25.0998 24.4583C23.5516 26.4555 20.4482 28.5748 16.6761 28.5748" fill="#1B4A96"/>
<path d="M28.397 29.7882C31.4287 30.322 33.5216 29.0444 34.4997 26.6342C34.9079 25.6292 35.2654 24.4042 35.5328 23.1025C35.9565 21.0499 33.6243 20.3913 31.1528 20.3516L28.397 29.7882Z" fill="#73C82C"/>
<path d="M41.8566 19.3094C42.3126 16.6365 41.212 14.6904 38.7686 14.425C37.7482 14.3143 36.7222 14.2348 35.3541 14.3412C33.2049 14.5101 32.4913 15.5265 31.4611 19.3094H41.858H41.8566Z" fill="#33BDF2"/>
<path d="M26.8122 13.3012C26.4434 14.1912 26.024 15.4261 25.8059 16.5915C25.4667 18.4326 27.3583 19.2544 30.2042 19.3084L32.8249 10.333C29.7383 9.67013 27.6975 11.1435 26.8122 13.3012Z" fill="#F9A70D"/>
<path d="M137.393 4.29635L134.179 3.92303C133.972 3.89322 133.832 3.9429 133.777 4.13879C133.73 4.30771 133.805 4.46243 134.003 4.57741L134.447 4.83859C134.965 5.1452 135.205 5.39645 135.205 6.06644V6.96781H134.153C133.27 6.96781 132.93 6.91529 132.482 6.69101C132.39 6.63991 132.284 6.62429 132.181 6.647V5.61363C132.181 5.41774 132.158 5.2985 132.106 5.22611C132.057 5.16081 131.974 5.09835 131.771 5.07706L128.937 4.83717C128.728 4.82156 128.588 4.85846 128.535 5.05293C128.486 5.22185 128.561 5.37799 128.762 5.49723L128.921 5.5753C129.439 5.8521 129.678 6.13173 129.678 6.80457V8.14597H126.165V5.97275C126.165 5.77403 126.143 5.65479 126.092 5.5824C126.041 5.51852 125.958 5.45748 125.753 5.43477L122.921 5.19346C122.711 5.17643 122.576 5.21617 122.519 5.40922C122.471 5.57814 122.544 5.73428 122.748 5.8521L122.903 5.93159C123.425 6.20839 123.659 6.48802 123.659 7.15944V11.7387C123.659 12.3874 123.722 12.8345 123.995 13.2007C124.264 13.5741 124.651 13.7543 125.205 13.7543H130.634C131.19 13.7543 131.574 13.5726 131.844 13.2007C132.117 12.8345 132.179 12.3874 132.179 11.7387V10.552C132.369 10.816 132.686 11.2589 132.772 11.3724C132.969 11.6393 133.127 11.6791 133.54 11.6791H135.204V15.0588H136.451C136.937 15.0588 137.276 14.8998 137.511 14.5748C137.753 14.2511 137.805 13.8594 137.805 13.293V4.83007C137.805 4.63419 137.781 4.51495 137.732 4.4454C137.681 4.37726 137.598 4.31764 137.393 4.29493M129.599 12.217C129.55 12.2809 129.469 12.3405 129.262 12.3576H126.575C126.368 12.3405 126.286 12.2809 126.236 12.217C126.185 12.1475 126.162 12.0297 126.162 11.8309V9.547H129.675V11.8309C129.675 12.0297 129.65 12.1475 129.598 12.217M134.151 10.1914C133.269 10.1914 132.928 10.1389 132.481 9.91322C132.389 9.86212 132.282 9.84651 132.179 9.87064V7.33687C132.369 7.59947 132.686 8.04093 132.772 8.15591C132.969 8.42561 133.127 8.46394 133.54 8.46394H135.204V10.1914H134.151Z" fill="#1B4A96"/>
<path d="M147.042 20.8467C146.835 20.8296 146.754 20.77 146.703 20.7033C146.65 20.6352 146.628 20.5188 146.628 20.3186V17.7025C146.628 17.5038 146.606 17.3874 146.555 17.3193C146.507 17.2511 146.422 17.1972 146.217 17.1787L143.02 16.9019C142.813 16.8806 142.671 16.9317 142.617 17.1319C142.569 17.3037 142.643 17.4527 142.844 17.5648L143.29 17.8132C143.806 18.1042 144.046 18.3526 144.046 19.0198V20.33C144.046 20.9758 144.108 21.4216 144.381 21.7906C144.651 22.1597 145.037 22.3428 145.593 22.3428H154.659L154.93 22.2619C154.99 22.1937 155.001 22.0873 155.001 21.9638V20.8452H147.044L147.042 20.8467Z" fill="#1B4A96"/>
<path d="M150.987 4.5787L151.431 4.83989C151.947 5.14649 152.187 5.39774 152.187 6.06773V14.5221H150.167C149.289 14.5221 148.944 14.4682 148.493 14.2439C148.263 14.1275 148.098 14.217 148.033 14.3206C147.978 14.4157 147.989 14.5945 148.102 14.7592C148.253 14.9735 148.683 15.5711 148.789 15.7102C148.987 15.9771 149.141 16.014 149.556 16.014H152.187V18.0297H153.436C153.919 18.0297 154.261 17.8693 154.498 17.5442C154.737 17.2206 154.79 16.8302 154.79 16.261V4.82995C154.79 4.63406 154.766 4.51483 154.716 4.44527C154.666 4.37714 154.583 4.3161 154.378 4.29481L151.16 3.92007C150.958 3.8931 150.816 3.93994 150.759 4.13725C150.711 4.30616 150.785 4.46089 150.987 4.57586" fill="#1B4A96"/>
<path d="M116.396 4.5787L116.839 4.83989C117.356 5.14649 117.594 5.39774 117.594 6.06773V13.9742H118.844C119.329 13.9742 119.668 13.8152 119.908 13.4888C120.144 13.1637 120.2 12.7762 120.2 12.207V4.82995C120.2 4.63406 120.176 4.51483 120.124 4.44527C120.075 4.37714 119.992 4.3161 119.787 4.29481L116.572 3.92007C116.364 3.8931 116.221 3.93994 116.169 4.13725C116.122 4.30616 116.193 4.46089 116.397 4.57586" fill="#1B4A96"/>
<path d="M143.928 16.1516H145.176C145.662 16.1516 145.999 15.9926 146.236 15.6676C146.476 15.3425 146.529 14.9521 146.529 14.3829V13.351H150.686C150.876 13.351 151.037 13.3325 151.141 13.2161C151.244 13.0983 151.259 12.9209 151.259 12.7122V11.8591H141.625C140.745 11.8591 140.461 11.7853 139.916 11.5241C139.678 11.4105 139.517 11.4943 139.452 11.5979C139.395 11.693 139.411 11.8733 139.524 12.038C139.673 12.2523 140.141 12.9053 140.246 13.0458C140.444 13.3141 140.597 13.351 141.013 13.351H143.925V16.1516H143.928Z" fill="#1B4A96"/>
<path d="M145.37 10.8999C147.726 10.8999 149.614 9.55849 149.614 7.63793C149.614 5.71738 147.726 4.37598 145.37 4.37598C143.014 4.37598 141.129 5.65492 141.129 7.63793C141.129 9.62094 143.015 10.8999 145.37 10.8999ZM145.37 5.75997C146.23 5.75997 147.108 6.54494 147.108 7.63793C147.108 8.73093 146.231 9.49603 145.37 9.49603C144.509 9.49603 143.652 8.73235 143.652 7.63793C143.652 6.54352 144.512 5.75997 145.37 5.75997Z" fill="#1B4A96"/>
<path d="M99.3741 4.22203L96.5662 3.92252C96.3551 3.89413 96.2115 3.9424 96.1552 4.13828C96.1074 4.30862 96.182 4.46334 96.3874 4.57832L96.5803 4.68336C97.1095 4.98855 97.3516 5.24122 97.3516 5.90979V10.9844H96.006V5.12056C96.006 4.92326 95.9821 4.80544 95.93 4.73588C95.8751 4.66633 95.7949 4.60955 95.5824 4.58684L92.7463 4.26036C92.5338 4.23481 92.3902 4.28449 92.3353 4.47754C92.2875 4.64646 92.3607 4.80402 92.569 4.919L92.7885 5.04675C93.3192 5.35194 93.5641 5.60602 93.5641 6.27602V14.8042C92.8758 15.1279 91.8807 15.3053 90.462 15.4529C88.8054 15.6233 88.3635 15.6559 88.2171 15.5566C88.0637 15.4529 88.0637 15.2854 88.0637 15.0825V7.65433H91.6049L91.8779 7.57342C91.9413 7.50386 91.9525 7.40024 91.9525 7.27675V6.16246H84.7069C84.4972 6.15536 84.2959 6.22066 84.2565 6.41796C84.2171 6.60959 84.3241 6.74444 84.5295 6.86226L84.6829 6.94601C85.215 7.2512 85.4571 7.50244 85.4571 8.17386V15.8376C85.4571 16.333 85.5218 16.7901 85.9018 17.135C86.2847 17.4828 87.2009 17.497 89.7076 17.0527C91.8779 16.668 92.7942 16.3628 93.5655 15.927V22.7718H94.6211C95.1179 22.7718 95.4627 22.6156 95.7048 22.2877C95.9497 21.9627 96.0074 21.5709 96.0074 21.0059V12.4763H97.353V22.9804H98.41C98.9068 22.9804 99.253 22.82 99.4937 22.495C99.74 22.1713 99.7935 21.7838 99.7935 21.2132V4.75576C99.7935 4.55703 99.7696 4.43921 99.7203 4.36966C99.6654 4.3001 99.5866 4.24191 99.3755 4.22061" fill="#1B4A96"/>
<path d="M76.963 9.50391C76.0622 9.50391 75.716 9.45281 75.2515 9.22711C75.0165 9.11071 74.8476 9.19872 74.7843 9.30376C74.7266 9.39887 74.7392 9.57772 74.8546 9.7438C75.0066 9.95814 75.4458 10.5515 75.5541 10.692C75.7568 10.956 75.913 10.9958 76.3381 10.9958H79.0545V17.6389H80.1833C80.6759 17.6389 81.025 17.4757 81.267 17.1521C81.5105 16.8284 81.5654 16.4381 81.5654 15.8688V4.81821C81.5654 4.61949 81.5429 4.50167 81.4894 4.43212C81.4387 4.36114 81.3557 4.30578 81.146 4.28023L78.0073 3.92252C77.7962 3.89413 77.6527 3.9424 77.5978 4.13828C77.5485 4.3072 77.6245 4.46193 77.8286 4.5769L78.2804 4.83809C78.8096 5.14469 79.0531 5.39594 79.0531 6.06593V9.50249H76.9616L76.963 9.50391Z" fill="#1B4A96"/>
<path d="M73.4205 20.7037C73.3698 20.637 73.3473 20.5191 73.3473 20.3204V16.8271C73.3473 16.6326 73.3234 16.5134 73.2713 16.4424C73.222 16.3771 73.1376 16.3189 72.9265 16.3033L69.6597 16.0279C69.4486 16.0038 69.305 16.0563 69.2488 16.255C69.1995 16.4268 69.2755 16.5801 69.481 16.6908L69.9314 16.9392C70.4606 17.2302 70.7069 17.4744 70.7069 18.1458V20.3303C70.7069 20.9762 70.7716 21.4219 71.0461 21.791C71.3234 22.1615 71.7174 22.3432 72.2832 22.3432H81.709L81.9821 22.2623C82.0482 22.1941 82.0567 22.0877 82.0567 21.9642V20.8456H73.7653C73.5542 20.83 73.4726 20.769 73.4205 20.7023" fill="#1B4A96"/>
<path d="M71.7005 11.6053C72.5112 12.7509 73.6428 14.1008 74.6928 15.0291C74.9011 15.2449 75.1108 15.2719 75.3585 15.0745C75.906 14.6359 76.5605 14.0085 77.0981 13.3215C75.4359 12.4982 73.9383 11.3754 72.6773 10.0084C72.9841 9.33986 73.1994 8.64148 73.3388 7.96013H76.2072L76.4802 7.88206C76.5422 7.8125 76.5506 7.70462 76.5506 7.58539V6.46684H73.5119C73.5654 5.91324 73.5991 5.2688 73.5991 4.79328C73.5991 4.57752 73.5738 4.47815 73.5203 4.40718C73.4725 4.34188 73.388 4.28084 73.1783 4.25955L69.9693 3.93023C69.7596 3.90184 69.6146 3.95153 69.5583 4.14599C69.5119 4.31349 69.5879 4.46964 69.7905 4.58887C70.3226 4.89264 70.5647 5.2177 70.5647 5.8153V6.46542H68.5661C67.6681 6.46542 67.3753 6.39303 66.818 6.129C66.5801 6.01828 66.4154 6.10345 66.3507 6.20849C66.293 6.30076 66.3071 6.48245 66.4211 6.64711C66.5745 6.86145 67.0516 7.51441 67.16 7.65494C67.3627 7.92038 67.5189 7.95871 67.9411 7.95871H70.5309C70.3761 10.2625 69.0361 12.4372 66.1649 14.7992L66.9531 15.4479C67.1769 15.5941 67.3627 15.631 67.5977 15.4521C69.091 14.3378 70.59 13.0603 71.6991 11.6039" fill="#1B4A96"/>
<path d="M62.69 4.83284C62.69 4.63554 62.6674 4.5163 62.6168 4.44533C62.5647 4.38003 62.4817 4.32041 62.2719 4.29628L58.9489 3.92154C58.7392 3.89315 58.5928 3.94141 58.5393 4.13872C58.4915 4.30764 58.5661 4.46236 58.773 4.57734L59.222 4.83852C59.7526 5.14513 59.9961 5.39638 59.9961 6.06637V22.9823H61.3064C61.8033 22.9823 62.1481 22.8219 62.3916 22.4968C62.6365 22.1746 62.69 21.7857 62.69 21.215V12.6244H65.0644L65.3402 12.5463C65.4036 12.4767 65.412 12.3717 65.412 12.2482V11.1339H62.69V4.83284Z" fill="#1B4A96"/>
<path d="M57.4316 6.32348H50.4379C49.5399 6.32348 49.2472 6.24967 48.6912 5.9899C48.452 5.87493 48.2845 5.95867 48.2183 6.06372C48.1634 6.16024 48.1775 6.34051 48.2929 6.50375C48.4449 6.7181 48.9235 7.37105 49.029 7.513C49.2331 7.77986 49.3894 7.81819 49.813 7.81819H54.4942C53.9031 10.8857 51.6877 14.9653 47.6005 18.2556L48.535 18.9483C48.7335 19.0931 48.939 19.0874 49.1796 18.9526C53.5456 15.9248 56.9207 11.4506 57.7483 6.70106C57.7722 6.57473 57.7567 6.47111 57.7004 6.40297L57.4316 6.32348Z" fill="#1B4A96"/>
<path d="M115.029 5.6967C115.053 5.57179 115.041 5.46816 114.987 5.40003L114.725 5.31912H107.668C106.786 5.31912 106.841 5.24531 106.3 4.98696C106.065 4.87482 105.901 4.95857 105.836 5.06219C105.781 5.1573 105.792 5.33757 105.908 5.50081C106.057 5.71515 106.525 6.36811 106.628 6.50864C106.827 6.7755 106.981 6.81525 107.395 6.81525H111.646C110.727 9.41715 108.404 12.0531 105.143 13.65L105.74 14.1838C105.895 14.3158 106.158 14.2746 106.396 14.1838C109.922 12.7884 114.268 9.46399 115.028 5.69954" fill="#1B4A96"/>
<path d="M111.919 20.9027C111.867 20.8345 111.846 20.7153 111.846 20.518V19.2476H118.611C119.715 19.2476 120.091 18.8558 120.091 18.0296V14.7407H110.192C109.311 14.7407 109.081 14.691 108.54 14.4299C108.306 14.3177 108.136 14.3206 108.036 14.4455C107.958 14.5406 107.977 14.7549 108.091 14.9196C108.241 15.1368 108.686 15.7386 108.792 15.8777C108.989 16.1446 109.145 16.1829 109.559 16.1829H117.381V17.794H108.406C108.2 17.7869 108.003 17.8565 107.967 18.0509C107.929 18.2426 108.03 18.3774 108.234 18.4967L108.385 18.579C108.907 18.887 109.143 19.1368 109.143 19.8083V20.4768C109.143 21.1255 109.207 21.5698 109.476 21.9417C109.749 22.3122 110.136 22.4925 110.687 22.4925H120.072L120.34 22.413C120.402 22.3434 120.413 22.2384 120.413 22.1163V21.0446H112.257C112.054 21.029 111.97 20.9694 111.92 20.9027" fill="#1B4A96"/>
<path d="M131.975 14.8721C129.487 14.8721 126.929 16.2774 126.929 18.9218C126.929 21.5663 129.487 22.9673 131.975 22.9673C134.464 22.9673 137.02 21.5663 137.02 18.9218C137.02 16.2774 134.459 14.8721 131.975 14.8721ZM131.975 21.5663C130.723 21.5663 129.547 20.4918 129.547 18.9218C129.547 17.3519 130.724 16.2986 131.975 16.2986C133.226 16.2986 134.406 17.3334 134.406 18.9218C134.406 20.5102 133.17 21.5663 131.975 21.5663Z" fill="#1B4A96"/>
<path d="M51.4682 31.1053C51.5034 30.9222 51.5203 30.6993 51.5203 30.4339C51.5203 30.0222 51.5034 29.7014 51.4682 29.4715C51.8186 29.497 52.1705 29.497 52.5196 29.4715C52.4816 29.771 52.4647 30.0733 52.4675 30.3743V30.7462C52.4675 30.9137 52.4858 31.1195 52.5196 31.3579C51.9636 31.5198 51.388 31.6078 50.8081 31.6177C49.9946 31.6177 49.3443 31.4133 48.8602 31.0045C48.3774 30.5943 48.1367 30.0222 48.1367 29.2855C48.1367 28.5488 48.3844 27.9214 48.8827 27.4885C49.3795 27.0541 50.0115 26.8369 50.7757 26.8369C51.3528 26.8383 51.9214 26.9732 52.4379 27.2315C52.3464 27.4501 52.2817 27.6787 52.2423 27.9115H52.1353C52.0171 27.7255 51.851 27.5694 51.6343 27.4445C51.4091 27.3153 51.1529 27.25 50.8939 27.2542C50.414 27.2542 50.0157 27.4303 49.6976 27.7837C49.3809 28.1357 49.2233 28.6269 49.2233 29.2571C49.2233 29.8874 49.3626 30.3672 49.6427 30.7007C49.9228 31.0329 50.3183 31.2004 50.8292 31.2004C51.0347 31.2004 51.2472 31.1692 51.4682 31.1053Z" fill="#1B4A96"/>
<path d="M53.3979 28.6574C53.5977 28.5055 53.7849 28.4005 53.9581 28.3423C54.134 28.2812 54.3367 28.25 54.5661 28.25C55.3697 28.25 55.7723 28.6191 55.7723 29.3572V30.8263C55.7723 31.0095 55.7962 31.1315 55.8441 31.1883C55.8919 31.2437 55.9834 31.2735 56.1199 31.2735V31.4381C55.9341 31.5418 55.7258 31.5985 55.5133 31.6056C55.3726 31.6056 55.2543 31.5716 55.16 31.5034C55.0573 31.4197 54.9799 31.3076 54.9362 31.1812C54.8448 31.3232 54.7181 31.4381 54.5675 31.512C54.4099 31.5872 54.2367 31.6241 54.0622 31.6213C53.8046 31.6284 53.5527 31.5403 53.3557 31.3743C53.1656 31.2096 53.0728 30.9811 53.0728 30.6844C53.0728 30.4559 53.1375 30.2657 53.267 30.1124C53.4007 29.9576 53.6231 29.8356 53.9383 29.7504L54.4563 29.607C54.5844 29.58 54.7082 29.5318 54.8208 29.4651L54.9081 29.2678C54.9081 29.1116 54.8405 28.964 54.7237 28.8632C54.597 28.7482 54.431 28.6872 54.2607 28.6929C53.9862 28.6929 53.7202 28.7894 53.4626 28.9825L53.3937 28.656L53.3979 28.6574ZM54.9123 29.7717C54.5379 29.8696 54.2958 29.9818 54.1903 30.1067C54.0833 30.2288 54.0298 30.4005 54.0298 30.6163C54.0298 30.9953 54.1579 31.1841 54.4141 31.1841C54.5562 31.1841 54.6745 31.1259 54.7702 31.0066C54.8645 30.8874 54.9123 30.6361 54.9123 30.25V29.7703V29.7717Z" fill="#1B4A96"/>
<path d="M58.811 29.175C58.7336 28.7619 58.4999 28.5547 58.1129 28.5547C57.8455 28.5405 57.5921 28.6781 57.457 28.9124C57.3163 29.1523 57.2459 29.4617 57.2459 29.8464C57.2459 30.2623 57.336 30.5873 57.5189 30.8258C57.6963 31.0558 57.9721 31.1864 58.2621 31.1764C58.5098 31.1764 58.7448 31.0984 58.9686 30.938L59.0756 30.9933L58.9292 31.3411C58.7913 31.4404 58.6379 31.5157 58.476 31.5639C58.3282 31.6023 58.1776 31.6221 58.0256 31.6193C57.5443 31.6193 57.1347 31.4731 56.7969 31.1793C56.4591 30.8854 56.2916 30.4837 56.2916 29.9741C56.2916 29.4645 56.4549 29.0486 56.78 28.7278C57.1051 28.407 57.5344 28.248 58.0664 28.248C58.2733 28.248 58.469 28.275 58.659 28.3304C58.8476 28.3857 59.0221 28.4652 59.184 28.5745C59.0981 28.7704 59.0221 28.972 58.9545 29.175H58.8082H58.811Z" fill="#1B4A96"/>
<path d="M59.6582 31.5426C59.6934 30.955 59.7103 30.0791 59.7103 28.9123C59.7103 27.7455 59.6934 26.9904 59.6582 26.5205C59.8961 26.5333 60.0593 26.5404 60.1508 26.5404C60.2423 26.5404 60.3971 26.5333 60.6237 26.5205C60.5801 27.2586 60.5632 27.9996 60.5702 28.7392C60.7363 28.5461 60.894 28.4169 61.0431 28.3502C61.1937 28.2821 61.3669 28.248 61.5555 28.248C61.8651 28.248 62.1199 28.346 62.3183 28.5418C62.5168 28.7363 62.6181 29.0387 62.6181 29.4446C62.6181 29.5639 62.6153 29.7385 62.6111 29.9713C62.6068 30.1913 62.604 30.4113 62.604 30.6313C62.604 30.9422 62.6209 31.2459 62.6561 31.5426C62.4422 31.5298 62.2831 31.5227 62.1804 31.5227C62.0931 31.5227 61.9313 31.5298 61.692 31.5426C61.7258 31.1111 61.7441 30.5561 61.7441 29.879V29.7314C61.7441 29.1182 61.5569 28.8144 61.1811 28.8144C61.0136 28.8101 60.8545 28.8811 60.7448 29.0089C60.6279 29.1352 60.5716 29.4461 60.5716 29.9386V30.2324C60.5716 30.7179 60.5885 31.1551 60.6251 31.544C60.4098 31.5313 60.2507 31.5242 60.1494 31.5242C60.0396 31.5242 59.8764 31.5313 59.6596 31.544" fill="#1B4A96"/>
<path d="M63.0404 30.0272C63.0404 29.4906 63.191 29.0605 63.4908 28.7355C63.792 28.4104 64.1973 28.25 64.7054 28.25C65.1798 28.25 65.5668 28.3891 65.8666 28.6716C66.1692 28.9498 66.3198 29.3529 66.3198 29.8838C66.3198 30.4147 66.1664 30.8476 65.8596 31.1585C65.5527 31.468 65.1516 31.6227 64.6534 31.6227C64.1551 31.6227 63.7906 31.4836 63.4908 31.2053C63.191 30.9257 63.0404 30.5325 63.0404 30.0286M63.9961 29.9874C63.9961 30.4261 64.0538 30.7596 64.172 30.9825C64.2902 31.2025 64.4577 31.3147 64.6703 31.3147C64.9039 31.3147 65.0784 31.1883 65.191 30.9357C65.3078 30.6816 65.3641 30.331 65.3641 29.881C65.3641 29.431 65.3135 29.1258 65.2135 28.8987C65.1136 28.6687 64.9503 28.5538 64.7209 28.5538C64.4718 28.5538 64.286 28.6872 64.1706 28.9512C64.0524 29.2138 63.9947 29.5602 63.9947 29.9874" fill="#1B4A96"/>
<path d="M66.7759 31.5432C66.8111 31.238 66.828 30.6873 66.828 29.8867C66.828 29.1755 66.8111 28.6546 66.7759 28.3295C66.98 28.3423 67.1348 28.3494 67.2417 28.3494C67.3375 28.3494 67.4867 28.3423 67.6879 28.3295C67.671 28.4814 67.6626 28.6333 67.6626 28.7852C67.8343 28.5907 67.999 28.453 68.158 28.3707C68.3213 28.2898 68.5014 28.2486 68.683 28.25C68.98 28.25 69.2305 28.3466 69.4332 28.5396C69.6344 28.7327 69.7372 29.0222 69.7372 29.4069C69.7372 29.5077 69.7344 29.6738 69.7301 29.9066C69.7259 30.0599 69.7245 30.2132 69.7231 30.3665C69.7231 30.842 69.74 31.2338 69.7752 31.5432C69.5556 31.5304 69.3938 31.5233 69.2896 31.5233C69.2023 31.5233 69.0433 31.5304 68.8111 31.5432C68.8449 30.9314 68.8631 30.4488 68.8631 30.0939V29.8242C68.8631 29.4183 68.8139 29.1471 68.7168 29.0166C68.6211 28.8831 68.4648 28.8065 68.3016 28.8164C68.1285 28.8093 67.9638 28.8874 67.8554 29.0236C67.7442 29.1599 67.6893 29.4154 67.6893 29.7859V30.4701C67.6893 30.8704 67.7062 31.2281 67.7428 31.5446C67.5303 31.5319 67.3712 31.5248 67.2671 31.5248C67.1038 31.5276 66.9406 31.5347 66.7773 31.5446" fill="#1B4A96"/>
<path d="M72.2255 26.9111C72.4606 26.9239 72.6393 26.931 72.7604 26.931C72.8983 26.931 73.077 26.9239 73.2938 26.9111C73.2586 27.3001 73.2417 28.1106 73.2417 29.3455C73.2417 29.9999 73.3402 30.457 73.5373 30.7224C73.7343 30.9865 74.0313 31.1199 74.424 31.1199C74.8167 31.1199 75.1263 30.9879 75.3557 30.7253C75.5866 30.4627 75.7006 29.98 75.7006 29.2774V28.8501C75.7006 27.9019 75.6837 27.2546 75.6485 26.9111C75.7681 26.9239 75.8779 26.931 75.9778 26.931C76.0651 26.931 76.1721 26.9239 76.2973 26.9111C76.279 27.117 76.2692 27.3242 76.265 27.5314C76.2579 27.7728 76.2523 28.3562 76.2438 29.2831C76.2467 29.6379 76.2115 29.9928 76.1411 30.342C76.0609 30.7168 75.8413 31.0461 75.5288 31.2618C75.2037 31.4989 74.7744 31.6181 74.2452 31.6181C73.716 31.6181 73.2431 31.4733 72.8561 31.1838C72.469 30.8942 72.2762 30.44 72.2762 29.8168V28.3675C72.2762 27.7955 72.2593 27.31 72.2241 26.9111" fill="#1B4A96"/>
<path d="M76.7463 31.5433C76.7815 31.2381 76.7984 30.6874 76.7984 29.8868C76.7984 29.1756 76.7815 28.6547 76.7463 28.3296C76.9504 28.3424 77.1052 28.3495 77.2122 28.3495C77.3079 28.3495 77.4557 28.3424 77.6584 28.3296C77.6415 28.4815 77.6316 28.6334 77.633 28.7853C77.8033 28.5908 77.9694 28.4531 78.1299 28.3708C78.2917 28.2899 78.4719 28.2473 78.6535 28.2501C78.9504 28.2501 79.201 28.3467 79.4036 28.5397C79.6049 28.7328 79.7076 29.0223 79.7076 29.407C79.7076 29.5078 79.7048 29.6739 79.6992 29.9067L79.6936 30.3666C79.6936 30.8421 79.7105 31.2339 79.7456 31.5433C79.5261 31.5305 79.3642 31.5234 79.2615 31.5234C79.1742 31.5234 79.0152 31.5305 78.7801 31.5433C78.8153 30.9315 78.8336 30.4489 78.8336 30.094V29.8243C78.8336 29.4184 78.7843 29.1472 78.6858 29.0167C78.5915 28.8818 78.4339 28.8066 78.2706 28.8165C78.0975 28.8094 77.9328 28.8875 77.8259 29.0237C77.7147 29.16 77.6598 29.4155 77.6598 29.786V30.4702C77.6598 30.8705 77.6767 31.2282 77.7119 31.5447C77.4993 31.532 77.3403 31.5249 77.2361 31.5249C77.1475 31.5249 76.9856 31.532 76.7477 31.5447" fill="#1B4A96"/>
<path d="M80.3269 27.1123C80.3241 26.9761 80.3762 26.8455 80.4705 26.7475C80.5605 26.6482 80.6886 26.5914 80.8237 26.5928C80.9603 26.5928 81.0785 26.6453 81.1756 26.7475C81.2727 26.8426 81.3276 26.9746 81.3262 27.1123C81.329 27.2472 81.2755 27.3763 81.1784 27.47C81.0869 27.5637 80.9603 27.6162 80.8294 27.6134C80.6971 27.6162 80.569 27.5651 80.4747 27.47C80.379 27.3763 80.3255 27.2472 80.3269 27.1123ZM80.3438 31.5411C80.379 31.1621 80.3959 30.6142 80.3959 29.8973C80.3959 29.2444 80.379 28.722 80.3438 28.3274C80.5549 28.3402 80.7139 28.3473 80.8237 28.3473L81.1066 28.3402L81.3093 28.3274C81.2727 28.7263 81.2572 29.2444 81.2572 29.8846C81.2572 30.6099 81.2727 31.1621 81.3093 31.5411C81.0954 31.5283 80.9335 31.5212 80.8265 31.5212L80.5634 31.5297L80.3452 31.5397" fill="#1B4A96"/>
<path d="M81.7583 28.3281C81.9891 28.3409 82.1721 28.348 82.303 28.348C82.4085 28.348 82.5817 28.3409 82.8209 28.3281C83.0869 29.2593 83.322 30.0187 83.5247 30.6064C83.816 29.8612 84.0694 29.1003 84.2833 28.3281C84.4114 28.3409 84.5099 28.348 84.576 28.348C84.6239 28.348 84.7182 28.3409 84.8589 28.3281C84.4071 29.38 84.0032 30.4531 83.6471 31.5418C83.481 31.529 83.3572 31.5219 83.2812 31.5219C83.1601 31.5234 83.0405 31.5305 82.9209 31.5418C82.5718 30.4573 82.1834 29.3842 81.7583 28.3281Z" fill="#1B4A96"/>
<path d="M85.9976 29.9685C86.0173 30.3971 86.1158 30.7066 86.2904 30.8954C86.4649 31.0827 86.7098 31.1849 86.9645 31.1764C87.0785 31.1764 87.1968 31.1608 87.322 31.1282C87.4487 31.0927 87.6049 31.0132 87.7921 30.8883L87.8738 30.9507L87.6852 31.3808C87.5205 31.4674 87.346 31.5341 87.1658 31.5781C87.0138 31.6079 86.859 31.6221 86.7042 31.6207C86.1862 31.6207 85.7809 31.4717 85.4853 31.1736C85.1883 30.8755 85.0405 30.4539 85.0405 29.9074C85.0405 29.412 85.1785 29.0131 85.4585 28.708C85.7358 28.4013 86.1116 28.248 86.5803 28.248C87.0222 28.248 87.3671 28.3829 87.6134 28.6526C87.8583 28.9223 87.9821 29.2658 87.9821 29.6817L87.9695 30.0196C87.8189 30.0196 87.6401 30.011 87.4318 29.994C87.2249 29.977 86.9561 29.9685 86.6267 29.9685H85.9976ZM85.9976 29.6122H87.0293V29.4589C87.0293 29.1892 86.987 28.972 86.9012 28.8045C86.8153 28.637 86.6971 28.5547 86.5423 28.5547C86.3875 28.5547 86.2523 28.6441 86.151 28.8215C86.0497 28.9961 85.999 29.2601 85.999 29.6122" fill="#1B4A96"/>
<path d="M88.4479 31.5432C88.4831 31.2366 88.5 30.8817 88.5 30.4814V29.8739C88.5 29.3146 88.4831 28.7993 88.4479 28.3295C88.6562 28.3423 88.8139 28.3494 88.9194 28.3494L89.1798 28.3423L89.3853 28.3295C89.3515 28.5793 89.3347 28.8306 89.3332 29.0818C89.5598 28.5282 89.8751 28.25 90.2819 28.25L90.3368 28.2543L90.4733 28.2614C90.4409 28.5509 90.4254 28.8405 90.4254 29.1315L90.3663 29.1684C90.2495 29.1173 90.1242 29.0903 89.9976 29.0861C89.823 29.0804 89.6556 29.1485 89.5345 29.2763C89.4163 29.4026 89.3586 29.6212 89.3586 29.9292V30.4701C89.3586 30.7781 89.3755 31.1358 89.4107 31.5446C89.2023 31.5318 89.0433 31.5247 88.9391 31.5247L88.6548 31.5333L88.4465 31.5432" fill="#1B4A96"/>
<path d="M92.7858 28.5177C92.7112 28.6994 92.6521 28.8868 92.6099 29.0799H92.4888C92.3509 28.7292 92.1257 28.5547 91.8161 28.5547C91.6908 28.549 91.5684 28.5859 91.467 28.6597C91.377 28.7236 91.3263 28.8286 91.3305 28.9379C91.3305 29.1366 91.5064 29.297 91.8555 29.4177C92.2074 29.5369 92.4607 29.6633 92.6155 29.7924C92.7943 29.9401 92.8815 30.1615 92.8815 30.4568C92.8815 30.8315 92.7689 31.1182 92.5423 31.3212C92.3157 31.5199 92.0173 31.6193 91.643 31.6193C91.4459 31.6193 91.2756 31.5966 91.1349 31.5512C90.9927 31.5043 90.8534 31.4362 90.7112 31.3468C90.752 31.148 90.783 30.9451 90.8055 30.7392H90.9252C91.0026 30.8982 91.1123 31.0402 91.2489 31.1537C91.3952 31.2644 91.574 31.3212 91.757 31.3141C91.9033 31.3141 92.0202 31.2758 92.1116 31.1991L92.2482 30.9053C92.2496 30.7832 92.1848 30.6697 92.0793 30.6101C91.8864 30.5022 91.6852 30.4142 91.4755 30.3446C91.1827 30.2353 90.9786 30.1047 90.8674 29.9543C90.7492 29.7839 90.6887 29.5781 90.6985 29.3694C90.6985 29.0316 90.8055 28.7619 91.0223 28.5589C91.239 28.3517 91.5191 28.248 91.8653 28.248C92.0652 28.248 92.2313 28.2722 92.3608 28.3176C92.4945 28.363 92.6366 28.4312 92.7886 28.5177" fill="#1B4A96"/>
<path d="M93.3207 27.1123C93.3179 26.9761 93.3699 26.8455 93.4642 26.7475C93.5543 26.6482 93.6824 26.5914 93.8175 26.5928C93.9526 26.5928 94.0708 26.6453 94.1694 26.7475C94.2665 26.8426 94.3214 26.9746 94.32 27.1123C94.3228 27.2472 94.2693 27.3763 94.1722 27.47C94.0807 27.5637 93.954 27.6162 93.8231 27.6134C93.6908 27.6162 93.5628 27.5651 93.4685 27.47C93.3727 27.3763 93.3193 27.2472 93.3207 27.1123ZM93.3376 31.5411C93.3713 31.1621 93.3896 30.6142 93.3896 29.8973C93.3896 29.2444 93.3713 28.722 93.3376 28.3274C93.5487 28.3402 93.7091 28.3473 93.8175 28.3473L94.1004 28.3402L94.3017 28.3274C94.2623 28.8455 94.2454 29.365 94.2496 29.8846C94.2496 30.6099 94.2665 31.1621 94.3017 31.5411C94.0877 31.5283 93.9273 31.5212 93.8203 31.5212L93.5571 31.5297L93.339 31.5397" fill="#1B4A96"/>
<path d="M94.6915 28.7546L94.7013 28.5942L94.7098 28.4494L94.707 28.3798L94.6901 28.2933L94.8562 28.3259C94.9336 28.3401 95.0377 28.3472 95.1644 28.3472C95.1644 28.0903 95.1475 27.8291 95.1123 27.5608C95.4121 27.4416 95.7105 27.3138 96.0075 27.1719L96.0764 27.2272C96.0426 27.7837 96.0243 28.157 96.0243 28.3458C96.1567 28.3458 96.2439 28.3429 96.2847 28.3415C96.3255 28.3387 96.455 28.3231 96.6718 28.2918L96.6591 28.4366L96.6507 28.5644L96.6591 28.6609L96.6718 28.7518C96.3973 28.7163 96.182 28.6992 96.0229 28.6992V30.7106C96.0229 30.925 96.0581 31.0797 96.1271 31.1734L96.4015 31.3111L96.5479 31.2983L96.7013 31.2557V31.4559C96.4776 31.5595 96.2355 31.6134 95.9892 31.6177C95.7077 31.6177 95.4994 31.5595 95.3657 31.4431C95.2319 31.3253 95.163 31.1265 95.163 30.8455V28.7007C95.0124 28.7007 94.9082 28.7077 94.8477 28.7205L94.6873 28.7532" fill="#1B4A96"/>
<path d="M96.8336 28.3281C97.0644 28.3409 97.2376 28.348 97.3558 28.348C97.4515 28.348 97.6218 28.3409 97.8667 28.3281C98.0286 28.8491 98.2735 29.5361 98.607 30.3892C98.949 29.5333 99.1925 28.8462 99.3333 28.3281L99.5965 28.348C99.6598 28.348 99.7555 28.3409 99.8836 28.3281C99.3164 29.7022 98.707 31.2295 98.0567 32.9088C97.9328 32.896 97.8315 32.8889 97.7569 32.8889C97.6823 32.8889 97.5796 32.896 97.4543 32.9088C97.657 32.5638 97.8892 32.1011 98.1468 31.5219C97.8104 30.7427 97.3727 29.6766 96.8336 28.3281Z" fill="#1B4A96"/>
<path d="M105.407 31.1053C105.44 30.9222 105.459 30.6993 105.459 30.4339C105.459 30.0222 105.44 29.7014 105.407 29.4715C105.757 29.4984 106.109 29.4984 106.459 29.4715C106.42 29.771 106.402 30.0733 106.406 30.3743V30.7462C106.406 30.9137 106.423 31.1195 106.459 31.3579C105.902 31.5198 105.326 31.6078 104.746 31.6177C103.933 31.6177 103.283 31.4133 102.797 31.0045C102.316 30.5943 102.075 30.0222 102.075 29.2855C102.075 28.5488 102.323 27.9214 102.821 27.4885C103.318 27.0541 103.95 26.8369 104.714 26.8369C105.291 26.8383 105.86 26.9732 106.376 27.2315C106.285 27.4501 106.22 27.6787 106.181 27.9115H106.074C105.947 27.717 105.774 27.5566 105.571 27.4445C105.346 27.3153 105.091 27.25 104.832 27.2542C104.351 27.2542 103.954 27.4303 103.637 27.7837C103.319 28.1357 103.16 28.6269 103.16 29.2571C103.16 29.8874 103.301 30.3672 103.581 30.7007C103.86 31.0329 104.257 31.2004 104.766 31.2004C104.973 31.2004 105.186 31.1692 105.405 31.1053" fill="#1B4A96"/>
<path d="M107.239 27.1123C107.236 26.9761 107.288 26.8455 107.383 26.7475C107.473 26.6482 107.601 26.5914 107.736 26.5928C107.871 26.5928 107.989 26.6453 108.086 26.7475C108.185 26.8426 108.24 26.9746 108.237 27.1123C108.24 27.2472 108.186 27.3763 108.089 27.47C107.996 27.5637 107.871 27.6148 107.74 27.6134C107.608 27.6162 107.48 27.5651 107.385 27.47C107.29 27.3763 107.236 27.2472 107.238 27.1123M107.254 31.5411C107.29 31.1621 107.308 30.6142 107.308 29.8973C107.308 29.2444 107.29 28.722 107.254 28.3274C107.466 28.3402 107.626 28.3473 107.736 28.3473L108.017 28.3402L108.22 28.3274C108.181 28.8455 108.164 29.365 108.168 29.8846C108.168 30.6099 108.185 31.1621 108.22 31.5411C108.006 31.5283 107.846 31.5212 107.739 31.5212L107.475 31.5297L107.256 31.5397" fill="#1B4A96"/>
<path d="M109.943 31.5431C109.727 31.5303 109.567 31.5232 109.461 31.5232L109.194 31.5317L108.98 31.5416C109.014 30.619 109.032 29.7346 109.032 28.8915C109.032 27.8936 109.014 27.1015 108.98 26.5195C109.191 26.5323 109.35 26.5394 109.459 26.5394L109.727 26.5323L109.944 26.5195C109.909 27.093 109.892 27.9773 109.892 29.1683C109.892 29.8922 109.909 30.6829 109.944 31.5416" fill="#1B4A96"/>
<path d="M112.817 31.5424C112.679 31.5297 112.573 31.5226 112.504 31.5226C112.402 31.5254 112.3 31.5311 112.198 31.5424C112.462 30.1443 112.689 28.6013 112.875 26.9121L113.129 26.932L113.374 26.9121C113.958 28.2152 114.472 29.2926 114.914 30.1386C115.608 28.8099 116.109 27.7354 116.416 26.9121C116.509 26.9235 116.603 26.9291 116.696 26.932C116.759 26.932 116.849 26.9249 116.972 26.9121C117.118 28.553 117.328 30.096 117.602 31.5424C117.357 31.5297 117.174 31.5226 117.053 31.5226C116.865 31.5226 116.676 31.5297 116.487 31.5424C116.435 30.5091 116.34 29.4785 116.203 28.4522C115.412 30.1144 114.942 31.1606 114.791 31.5921L114.655 31.5723L114.521 31.5921C114.34 31.1294 113.863 30.1258 113.088 28.5814C112.929 29.8078 112.839 30.7958 112.817 31.5424Z" fill="#1B4A96"/>
<path d="M118.772 29.9685C118.793 30.3971 118.89 30.7066 119.066 30.8954C119.239 31.0827 119.486 31.1849 119.739 31.1764C119.86 31.1764 119.98 31.1594 120.097 31.1282C120.223 31.0927 120.381 31.0132 120.567 30.8883L120.647 30.9507L120.46 31.3808C120.296 31.4674 120.122 31.5341 119.942 31.5781C119.79 31.6079 119.635 31.6221 119.479 31.6207C118.962 31.6207 118.555 31.4717 118.26 31.1736C117.964 30.8755 117.816 30.4539 117.816 29.9074C117.816 29.412 117.954 29.0131 118.233 28.708C118.512 28.4013 118.886 28.248 119.355 28.248C119.798 28.248 120.143 28.3829 120.389 28.6526C120.634 28.9223 120.757 29.2658 120.757 29.6817L120.744 30.0196C120.564 30.0181 120.385 30.0096 120.206 29.994C119.999 29.977 119.732 29.9685 119.401 29.9685H118.772ZM118.772 29.6122H119.804V29.4589C119.804 29.1892 119.762 28.972 119.676 28.8045C119.591 28.637 119.473 28.5547 119.318 28.5547C119.163 28.5547 119.028 28.6441 118.927 28.8215C118.824 28.9961 118.773 29.2601 118.773 29.6122" fill="#1B4A96"/>
<path d="M123.301 26.5205C123.519 26.5333 123.687 26.5404 123.798 26.5404C123.899 26.5404 124.054 26.5333 124.264 26.5205C124.23 26.9932 124.212 27.967 124.212 29.4432V30.6185C124.212 30.9621 124.23 31.2701 124.264 31.5426C124.065 31.5298 123.915 31.5227 123.813 31.5227C123.73 31.5227 123.583 31.5298 123.363 31.5426L123.388 31.087C123.298 31.263 123.157 31.4063 122.986 31.5C122.815 31.5824 122.63 31.6235 122.441 31.6207C122.081 31.6306 121.736 31.4816 121.492 31.2147C121.245 30.9422 121.121 30.5334 121.121 29.9883C121.121 29.4432 121.239 29.0387 121.478 28.7221C121.719 28.407 122.05 28.2494 122.468 28.2494C122.886 28.2494 123.162 28.3971 123.347 28.6895V27.8775C123.347 27.3864 123.331 26.935 123.295 26.5205M122.079 29.8364C122.079 30.3275 122.134 30.6725 122.245 30.8755C122.359 31.0756 122.517 31.1778 122.721 31.1778C122.925 31.1778 123.09 31.0657 123.194 30.8414C123.298 30.6171 123.353 30.285 123.353 29.8463C123.353 29.4446 123.295 29.1536 123.181 28.9691C123.086 28.7945 122.901 28.688 122.704 28.6923C122.507 28.6923 122.352 28.7874 122.241 28.9819C122.133 29.1735 122.079 29.4588 122.079 29.835" fill="#1B4A96"/>
<path d="M124.893 27.1123C124.89 26.9761 124.942 26.8455 125.036 26.7475C125.127 26.6482 125.255 26.5914 125.388 26.5928C125.525 26.5928 125.643 26.6453 125.742 26.7475C125.839 26.8426 125.892 26.9761 125.891 27.1123C125.894 27.2472 125.84 27.3763 125.744 27.47C125.653 27.5637 125.526 27.6162 125.395 27.6134C125.124 27.6191 124.9 27.4019 124.894 27.1294C124.894 27.1237 124.894 27.118 124.894 27.1123M124.91 31.5411C124.945 31.1621 124.962 30.6142 124.962 29.8973C124.962 29.2444 124.945 28.722 124.91 28.3274C125.121 28.3402 125.28 28.3473 125.388 28.3473L125.673 28.3402L125.874 28.3274C125.835 28.8455 125.818 29.365 125.822 29.8846C125.822 30.6099 125.839 31.1621 125.874 31.5411C125.66 31.5283 125.5 31.5212 125.393 31.5212L125.129 31.5297L124.911 31.5397" fill="#1B4A96"/>
<path d="M128.924 29.175C128.846 28.7619 128.614 28.5547 128.227 28.5547C127.96 28.5405 127.706 28.6781 127.571 28.9124C127.431 29.1523 127.359 29.4617 127.359 29.8464C127.359 30.2623 127.45 30.5873 127.633 30.8258C127.811 31.0572 128.086 31.1878 128.376 31.1764C128.624 31.1764 128.859 31.0984 129.083 30.938L129.191 30.9933L129.044 31.3411C128.906 31.4404 128.752 31.5157 128.59 31.5639C128.443 31.6023 128.291 31.6221 128.139 31.6193C127.657 31.6193 127.248 31.4731 126.91 31.1793C126.573 30.8854 126.405 30.4837 126.405 29.9741C126.405 29.4645 126.568 29.0486 126.894 28.7278C127.219 28.407 127.649 28.248 128.181 28.248C128.386 28.248 128.585 28.275 128.773 28.3304C128.962 28.3857 129.138 28.4652 129.297 28.5745C129.212 28.7704 129.136 28.972 129.07 29.175H128.921H128.924Z" fill="#1B4A96"/>
<path d="M129.894 28.6574C130.094 28.5055 130.281 28.4005 130.454 28.3423C130.63 28.2812 130.832 28.25 131.063 28.25C131.867 28.25 132.269 28.6191 132.269 29.3572V30.8263C132.269 31.0095 132.293 31.1315 132.34 31.1883C132.388 31.2437 132.479 31.2735 132.616 31.2735V31.4381C132.43 31.5418 132.222 31.5985 132.009 31.6056C131.868 31.6056 131.75 31.5716 131.657 31.5034C131.553 31.4197 131.476 31.3076 131.432 31.1812C131.341 31.3232 131.214 31.4381 131.063 31.512C130.906 31.5872 130.733 31.6241 130.558 31.6213C130.3 31.6284 130.05 31.5403 129.853 31.3743C129.663 31.2096 129.567 30.9811 129.567 30.6844C129.567 30.4559 129.633 30.2657 129.763 30.1124C129.896 29.9576 130.119 29.8356 130.434 29.7504L130.952 29.607C131.08 29.58 131.204 29.5332 131.317 29.4651L131.405 29.2678C131.405 29.1116 131.336 28.964 131.22 28.8632C131.093 28.7482 130.927 28.6858 130.755 28.6929C130.482 28.6929 130.216 28.7894 129.957 28.9825L129.888 28.656L129.894 28.6574ZM131.41 29.7717C131.032 29.8696 130.792 29.9818 130.686 30.1067C130.579 30.2288 130.526 30.4005 130.526 30.6163C130.526 30.9953 130.654 31.1841 130.911 31.1841C131.051 31.1841 131.183 31.1202 131.266 31.0066C131.362 30.8874 131.41 30.6361 131.41 30.25V29.7703V29.7717Z" fill="#1B4A96"/>
<path d="M133.98 31.5431C133.766 31.5303 133.605 31.5232 133.498 31.5232L133.23 31.5317L133.016 31.5416C133.051 30.619 133.068 29.7346 133.068 28.8915C133.068 27.8936 133.051 27.1015 133.016 26.5195C133.227 26.5323 133.386 26.5394 133.496 26.5394L133.763 26.5323L133.98 26.5195C133.945 27.093 133.928 27.9773 133.928 29.1683C133.928 29.8922 133.945 30.6829 133.98 31.5416" fill="#1B4A96"/>
<path d="M140.112 27.8682C139.919 27.6227 139.742 27.4594 139.577 27.3785C139.4 27.2933 139.204 27.2508 139.007 27.255C138.561 27.255 138.196 27.4353 137.915 27.7973C137.635 28.155 137.495 28.6276 137.495 29.2139C137.495 29.8001 137.636 30.3041 137.919 30.6618C138.203 31.0209 138.58 31.2012 139.052 31.2012C139.231 31.2012 139.424 31.1628 139.628 31.089C139.835 31.0152 140.046 30.8804 140.26 30.6873L140.351 30.7342C140.291 30.9286 140.24 31.1273 140.2 31.3289C140.001 31.4325 139.788 31.5092 139.569 31.5574C139.348 31.5986 139.122 31.6199 138.897 31.6185C138.177 31.6185 137.58 31.4141 137.111 31.0053C136.642 30.595 136.407 30.023 136.407 29.2863C136.407 28.5496 136.651 27.9222 137.135 27.4892C137.619 27.0549 138.244 26.8391 139.011 26.8391C139.473 26.8334 139.929 26.9285 140.35 27.1173C140.279 27.3657 140.219 27.617 140.168 27.8696H140.11L140.112 27.8682Z" fill="#1B4A96"/>
<path d="M141.619 29.9685C141.64 30.3971 141.737 30.7066 141.912 30.8954C142.086 31.0827 142.331 31.1849 142.586 31.1764C142.7 31.1764 142.818 31.1608 142.944 31.1282C143.07 31.0927 143.227 31.0132 143.414 30.8883L143.495 30.9507L143.307 31.3808C143.142 31.4674 142.969 31.5341 142.789 31.5781C142.637 31.6079 142.482 31.6221 142.326 31.6207C141.809 31.6207 141.402 31.4717 141.105 31.1736C140.811 30.8755 140.662 30.4539 140.662 29.9074C140.662 29.412 140.801 29.0131 141.08 28.708C141.357 28.4013 141.733 28.248 142.202 28.248C142.645 28.248 142.989 28.3829 143.235 28.6526C143.48 28.9223 143.604 29.2658 143.604 29.6817L143.591 30.0196C143.44 30.0196 143.262 30.011 143.053 29.994C142.846 29.977 142.578 29.9685 142.248 29.9685H141.619ZM141.619 29.6122H142.651V29.4589C142.651 29.1892 142.609 28.972 142.523 28.8045C142.437 28.637 142.319 28.5547 142.164 28.5547C142.009 28.5547 141.875 28.6441 141.773 28.8215C141.67 28.9961 141.621 29.2601 141.621 29.6122" fill="#1B4A96"/>
<path d="M144.019 31.5432C144.053 31.238 144.071 30.6872 144.071 29.8867C144.071 29.1755 144.053 28.6546 144.019 28.3295C144.174 28.3408 144.329 28.3465 144.485 28.3494C144.581 28.3494 144.73 28.3423 144.932 28.3295C144.915 28.4814 144.906 28.6333 144.907 28.7851C145.077 28.5907 145.245 28.453 145.402 28.3707C145.563 28.2897 145.739 28.25 145.927 28.25C146.224 28.25 146.474 28.3465 146.678 28.5396C146.879 28.7326 146.98 29.0222 146.98 29.4069C146.98 29.5077 146.98 29.6737 146.973 29.9065L146.966 30.3664C146.966 30.842 146.983 31.2337 147.018 31.5432C146.8 31.5304 146.638 31.5233 146.534 31.5233C146.447 31.5233 146.288 31.5304 146.054 31.5432C146.089 30.9314 146.108 30.4488 146.108 30.0939V29.8242C146.108 29.4182 146.057 29.1471 145.96 29.0165C145.864 28.8831 145.708 28.8064 145.545 28.8164C145.371 28.8093 145.207 28.8873 145.1 29.0236C144.989 29.1599 144.934 29.4154 144.934 29.7859V30.4701C144.934 30.8704 144.951 31.2281 144.986 31.5446C144.828 31.5332 144.669 31.5276 144.51 31.5247C144.421 31.5247 144.258 31.5318 144.022 31.5446" fill="#1B4A96"/>
<path d="M147.262 28.7546L147.272 28.5942L147.28 28.4494L147.277 28.3798L147.26 28.2933L147.426 28.3259C147.504 28.3401 147.608 28.3472 147.735 28.3472C147.735 28.0903 147.718 27.8291 147.683 27.5608C147.982 27.4416 148.279 27.3138 148.578 27.1719L148.647 27.2272C148.62 27.5991 148.603 27.9725 148.595 28.3458C148.727 28.3458 148.814 28.3429 148.855 28.3415C148.897 28.3387 149.025 28.3231 149.243 28.2918L149.229 28.4366L149.222 28.5644L149.229 28.6609L149.243 28.7518C148.969 28.7163 148.754 28.6992 148.595 28.6992V30.7106C148.595 30.925 148.628 31.0797 148.699 31.1734L148.973 31.3111L149.12 31.2983L149.272 31.2557V31.4559C149.17 31.5055 149.062 31.5439 148.952 31.5694C148.824 31.6006 148.693 31.6163 148.562 31.6177C148.279 31.6177 148.071 31.5595 147.937 31.4431C147.802 31.3253 147.735 31.1265 147.735 30.8455V28.7007C147.584 28.7007 147.48 28.7077 147.419 28.7205L147.259 28.7532" fill="#1B4A96"/>
<path d="M150.451 29.9685C150.472 30.3971 150.569 30.7066 150.745 30.8954C150.918 31.0827 151.165 31.1849 151.418 31.1764C151.539 31.1764 151.659 31.1594 151.776 31.1282C151.902 31.0927 152.06 31.0132 152.246 30.8883L152.326 30.9507L152.139 31.3808C151.974 31.4674 151.801 31.5341 151.621 31.5781C151.469 31.6079 151.314 31.6221 151.158 31.6207C150.641 31.6207 150.234 31.4717 149.937 31.1736C149.643 30.8755 149.494 30.4539 149.494 29.9074C149.494 29.412 149.633 29.0131 149.912 28.708C150.191 28.4013 150.564 28.248 151.034 28.248C151.477 28.248 151.821 28.3829 152.068 28.6526C152.313 28.9223 152.436 29.2658 152.436 29.6817L152.423 30.0196C152.272 30.0196 152.094 30.011 151.885 29.994C151.678 29.977 151.411 29.9685 151.08 29.9685H150.451ZM150.451 29.6122H151.483V29.4589C151.483 29.1892 151.441 28.972 151.355 28.8045C151.269 28.637 151.152 28.5547 150.996 28.5547C150.84 28.5547 150.707 28.6441 150.605 28.8215C150.503 28.9961 150.452 29.2601 150.452 29.6122" fill="#1B4A96"/>
<path d="M152.903 31.5432C152.937 31.2366 152.955 30.8817 152.955 30.4814V29.8739C152.955 29.3146 152.937 28.7993 152.903 28.3295C153.111 28.3423 153.267 28.3494 153.374 28.3494L153.635 28.3423L153.84 28.3295C153.806 28.5793 153.79 28.8306 153.788 29.0818C154.015 28.5282 154.33 28.25 154.735 28.25L154.79 28.2543L154.927 28.2614C154.894 28.5509 154.879 28.8405 154.879 29.1315L154.82 29.1684C154.703 29.1187 154.578 29.0903 154.451 29.0861C154.277 29.0804 154.109 29.1485 153.988 29.2763C153.87 29.4026 153.811 29.6212 153.811 29.9292V30.4701C153.811 30.7781 153.829 31.1358 153.864 31.5446C153.656 31.5318 153.498 31.5247 153.393 31.5247L153.108 31.5333L152.9 31.5432" fill="#1B4A96"/>
</g>
<defs>
<clipPath id="clip0_150_8794">
<rect width="155" height="33" fill="white" transform="translate(0 1)"/>
</clipPath>
</defs>
</svg>
